<?xml version="1.0" encoding="UTF-8"?>
<svg id="Capa_1" data-name="Capa 1" xmlns="http://www.w3.org/2000/svg" viewBox="0 0 841.34 412.64">
  <defs>
    <style>
      .cls-1, .cls-2 {
        stroke-width: 0px;
      }

      .cls-2 {
        fill: #f6e100;
      }
    </style>
  </defs>
  <rect class="cls-2" width="841.34" height="412.64"/>
  <g>
    <path class="cls-1" d="M92.37,334.78c-6.75-6.6-10.92-14.02-12.55-22.23-1.6-8.23-2.41-17.33-2.41-27.3V124.77c0-9.98.82-19.07,2.41-27.3,1.63-8.22,5.8-15.63,12.55-22.23,6.75-6.62,17.08-9.91,31-9.91h2.12c14.31,0,24.97,3.23,31.92,9.7,6.98,6.46,11.25,13.77,12.88,21.92,1.6,8.15,2.41,17.43,2.41,27.83v67.68h-39.84v-65.56c0-4.92-.2-8.61-.52-11.07-.36-2.46-.98-4.25-1.89-5.38-.95-1.12-2.45-1.7-4.53-1.7h-1.92c-1.66,0-2.93.6-3.78,1.79-.85,1.21-1.4,3.06-1.7,5.59-.29,2.53-.42,6.26-.42,11.18v155.59c0,4.92.13,8.62.42,11.07.29,2.46.85,4.3,1.7,5.49.85,1.19,2.12,1.79,3.78,1.79h2.12c1.96,0,3.39-.54,4.34-1.58.91-1.06,1.53-2.82,1.89-5.28.33-2.45.52-6.15.52-11.07v-67.47h39.84v69.38c0,10.53-.82,19.85-2.41,27.92-1.63,8.09-5.9,15.37-12.88,21.83-6.94,6.47-17.61,9.7-31.92,9.7h-2.12c-13.92,0-24.26-3.29-31-9.91Z"/>
    <path class="cls-1" d="M204.94,68.27h55.88l30.16,273.89h-41.31l-5.71-56.52h-22.14l-6.13,56.52h-40.88l30.12-273.89ZM228.77,246.02h8.25c.98,0,1.83.07,2.51.21l.65.21.62-.42-.42-1.27c0-.98-.07-1.89-.2-2.74l-5.93-89.82c-.13-2.95-.26-6.39-.39-10.33-.16-3.93-.23-7.24-.23-9.91h-1.7c0,2.67-.07,5.98-.2,9.91-.13,3.94-.29,7.38-.42,10.33l-5.48,89.82-.23,1.27-.2,1.47-.42,1.27.62.42.85-.21c.72-.15,1.47-.21,2.31-.21Z"/>
    <path class="cls-1" d="M301.12,331.09c-8.15-9.06-12.23-22.53-12.23-40.38v-58.62h40.69v58.62c0,3.23.82,5.77,2.45,7.6,1.6,1.83,3.33,2.74,5.15,2.74h.42c1.96,0,3.55-.49,4.73-1.48,1.21-.98,1.79-2.25,1.79-3.8v-57.35c0-1.68-.39-3.44-1.24-5.27-.85-1.83-2.25-3.65-4.24-5.49-1.96-1.83-4.56-3.57-7.79-5.27-1.53-.7-3.1-1.4-4.63-2.1-6.49-2.53-12.45-6.08-17.93-10.64-5.48-4.58-9.98-10.33-13.5-17.3-3.52-6.96-5.28-14.93-5.28-23.93v-59.47c0-15.03,4.14-26.11,12.36-33.21,8.22-7.09,19.99-10.64,35.31-10.64h.62c13.79,0,25.43,3.65,34.92,10.95,9.49,7.32,14.21,20.12,14.21,38.37v62.2h-40.46v-58.41c0-2.66-.59-4.91-1.7-6.75-1.14-1.83-3.03-2.74-5.71-2.74h-.42c-1.66,0-3.1.51-4.21,1.48-1.14.98-1.7,2.18-1.7,3.59v57.14c0,1.55.36,3.1,1.08,4.65.68,1.55,1.79,3.08,3.26,4.63,1.47,1.55,3.33,3.03,5.57,4.43,1.99,1.12,4.08,2.18,6.32,3.16,1.83.85,3.59,1.76,5.28,2.74,5.9,3.23,11.28,7.06,16.14,11.49,4.83,4.42,8.87,9.85,12.13,16.24,3.23,6.39,4.83,13.68,4.83,21.83v59.45c0,14.62-4.27,25.8-12.85,33.53-8.57,7.73-20.67,11.59-36.29,11.59h-.62c-16.17,0-28.33-4.53-36.48-13.6Z"/>
    <path class="cls-1" d="M395.79,68.27h41.96v273.89h-41.96V68.27Z"/>
    <path class="cls-1" d="M468.92,68.27h55.88l30.16,273.89h-41.31l-5.71-56.52h-22.14l-6.13,56.52h-40.88l30.12-273.89ZM492.75,246.02h8.25c.98,0,1.83.07,2.51.21l.65.21.62-.42-.42-1.27c0-.98-.07-1.89-.2-2.74l-5.93-89.82c-.13-2.95-.26-6.39-.39-10.33-.16-3.93-.23-7.24-.23-9.91h-1.7c0,2.67-.07,5.98-.2,9.91-.13,3.94-.29,7.38-.42,10.33l-5.48,89.82-.23,1.27-.2,1.47-.42,1.27.62.42.85-.21c.72-.15,1.47-.21,2.31-.21Z"/>
    <path class="cls-1" d="M559.19,68.27h44.47l14.34,113.65c.85,4.63,2.25,16.15,4.21,34.57.59,4.5,1.08,9.06,1.5,13.71l-11.41-9.08,22.17-3.16-9.29,12.45c-.29-5.62-.72-13.46-1.27-23.52-.55-10.04-.91-18.37-1.04-24.97l-2.54-113.65h38.37v273.89h-44.89l-14.96-120.61c-.59-2.95-1.17-6.88-1.79-11.8-.65-4.92-1.3-10.19-2.02-15.81-.42-3.8-.78-7.21-1.04-10.22-.29-3.03-.49-5.31-.65-6.86l12.26,12.44-22.79,2.95,9.06-12.86c.29.29.75,4.3,1.37,12.03.65,7.73,1.11,15.45,1.37,23.18.29,4.37.49,8.79.65,13.29l2.31,114.29h-38.37V68.27Z"/>
    <path class="cls-1" d="M682.43,334.99c-6.98-6.46-11.25-13.74-12.88-21.83-1.6-8.07-2.41-17.39-2.41-27.92V124.77c0-10.53.82-19.85,2.41-27.94,1.63-8.07,5.9-15.36,12.88-21.81,6.94-6.47,17.61-9.78,31.95-9.91h2.31c14.34.13,24.97,3.44,31.95,9.91,6.94,6.46,11.25,13.74,12.85,21.81,1.63,8.09,2.45,17.41,2.45,27.94v160.47c0,10.53-.82,19.85-2.45,27.92-1.6,8.09-5.9,15.37-12.85,21.83-6.98,6.47-17.61,9.7-31.95,9.7h-2.31c-14.34,0-25.01-3.23-31.95-9.7ZM720.9,299.47c1.14-1.19,1.86-3.1,2.22-5.71.36-2.59.52-6.49.52-11.69v-153.93c0-5.33-.16-9.31-.52-11.92-.36-2.59-1.08-4.45-2.22-5.57-1.11-1.12-2.8-1.76-5.05-1.91h-.62c-2.25,0-3.94.6-5.09,1.79-1.11,1.21-1.86,3.13-2.22,5.8-.33,2.67-.52,6.6-.52,11.8v153.93c0,5.2.2,9.1.52,11.69.36,2.61,1.11,4.52,2.22,5.71,1.14,1.19,2.84,1.79,5.09,1.79h.62c2.25,0,3.94-.6,5.05-1.79Z"/>
  </g>
</svg>